<svg clip-rule="evenodd" fill-rule="evenodd" stroke-linejoin="round" stroke-miterlimit="2" viewBox="0 0 96 96" xmlns="http://www.w3.org/2000/svg"><g transform="translate(-2952 -152)"><path d="m2984.58 222.638 13.68 24.342c.35.63 1.02 1.02 1.74 1.02s1.39-.39 1.74-1.02l13.68-24.342c12.73-5.85 21.58-18.719 21.58-33.638 0-20.421-16.58-37-37-37s-37 16.579-37 37c0 14.919 8.85 27.788 21.58 33.638zm15.42-51.638c9.93 0 18 8.066 18 18s-8.07 18-18 18-18-8.066-18-18 8.07-18 18-18z" fill="#e01515"/><path d="m3009.5 153.233c-15.82 4.198-27.5 18.63-27.5 35.767 0 14.919 8.85 27.788 21.58 33.638l5.92 10.537 5.92-10.537c12.73-5.85 21.58-18.719 21.58-33.638 0-17.137-11.68-31.569-27.5-35.767zm-9.5 17.767c9.93 0 18 8.066 18 18s-8.07 18-18 18-18-8.066-18-18 8.07-18 18-18z" fill="#ef5656"/><path d="m2982 189.144c.08 9.868 8.11 17.856 18 17.856 9.93 0 18-8.066 18-18s-8.07-18-18-18c17.14 0 31.57 11.676 35.77 27.5-2.85 10.744-10.42 19.576-20.35 24.138l-5.92 10.537-5.92-10.537c-12.69-5.831-21.52-18.637-21.58-33.494z" fill="#f43030"/></g></svg>